<?xml version="1.0" encoding="utf-8"?>
<!-- Generator: Adobe Illustrator 18.1.1, SVG Export Plug-In . SVG Version: 6.00 Build 0)  -->
<!DOCTYPE svg PUBLIC "-//W3C//DTD SVG 1.1//EN" "http://www.w3.org/Graphics/SVG/1.1/DTD/svg11.dtd">
<svg version="1.1" id="Layer_1" xmlns="http://www.w3.org/2000/svg" xmlns:xlink="http://www.w3.org/1999/xlink" x="0px" y="0px"
	 viewBox="0 0 9 19.6" enable-background="new 0 0 9 19.6" xml:space="preserve">
<path fill="#FFFFFF" d="M2.7,0L2.7,0h3.6c0.4,0,0.7,0.3,0.7,0.8v0v1.4h1.4C8.7,2.2,9,2.5,9,2.9v0v15.9c0,0.4-0.3,0.8-0.7,0.8h0H0.7
	c-0.4,0-0.7-0.3-0.7-0.8v0V2.9c0-0.4,0.3-0.8,0.7-0.8h0H2V0.8C2,0.3,2.3,0,2.7,0L2.7,0z M5.5,15.8H3.5c-0.2,0-0.4,0.2-0.4,0.5
	c0,0.2,0.2,0.5,0.4,0.5h1.9c0.2,0,0.4-0.2,0.4-0.5C5.9,16,5.7,15.8,5.5,15.8L5.5,15.8z M4.1,4.7v0.6H3.5c-0.2,0-0.4,0.2-0.4,0.5
	c0,0.2,0.2,0.5,0.4,0.5h0.6v0.6c0,0.2,0.2,0.5,0.4,0.5c0.2,0,0.4-0.2,0.4-0.5V6.3h0.6c0.2,0,0.4-0.2,0.4-0.5c0-0.2-0.2-0.5-0.4-0.5
	H4.9V4.7c0-0.2-0.2-0.5-0.4-0.5C4.3,4.3,4.1,4.5,4.1,4.7L4.1,4.7z M3.4,2.8h2.3V1.5H3.4V2.8L3.4,2.8z M6.3,3.7H2.7h0H2.1h0H1.3v14.4
	h6.3V3.7H6.3L6.3,3.7L6.3,3.7L6.3,3.7L6.3,3.7z"/>
<g>
</g>
<g>
</g>
<g>
</g>
<g>
</g>
<g>
</g>
<g>
</g>
</svg>
